{"glyphs":{"0":{"ha":1158,"x_min":0,"x_max":0,"o":"m 921 1000 b 1089 831 1014 1000 1089 925 l 1089 168 b 921 0 1089 75 1014 0 l 247 0 b 79 168 153 0 79 75 l 79 831 b 247 1000 79 925 153 1000 m 247 885 b 193 831 218 885 193 860 l 193 251 l 960 885 m 921 114 b 975 168 950 114 975 139 l 975 747 l 207 114 "},"1":{"ha":543,"x_min":0,"x_max":0,"o":"m 264 1000 l 419 1000 l 419 0 l 304 0 l 304 872 b 150 688 267 825 190 738 l 1 688 "},"2":{"ha":1153,"x_min":0,"x_max":0,"o":"m 921 1001 b 1089 832 1014 1001 1089 926 l 1089 597 b 921 429 1089 504 1014 429 l 247 429 b 193 375 218 429 193 404 l 193 168 b 247 114 193 139 218 114 l 1089 114 l 1089 0 l 79 0 l 79 375 b 247 543 79 469 153 543 l 921 543 b 975 597 950 543 975 568 l 975 832 b 921 886 975 861 950 886 l 247 886 b 193 832 218 886 193 861 l 193 793 l 79 793 l 79 832 b 247 1001 79 926 153 1001 "},"3":{"ha":1147,"x_min":0,"x_max":0,"o":"m 1029 525 b 1085 400 1063 494 1085 449 l 1085 168 b 917 0 1085 75 1010 0 l 243 0 b 74 168 149 0 74 75 l 74 190 l 189 190 l 189 168 b 243 114 189 139 214 114 l 917 114 b 971 168 946 114 971 139 l 971 400 b 917 454 971 429 946 454 l 265 454 l 265 568 l 872 568 b 926 622 901 568 926 593 l 926 832 b 872 886 926 861 901 886 l 243 886 b 189 832 214 886 189 861 l 189 796 l 74 796 l 74 832 b 243 1001 74 926 149 1001 l 872 1001 b 1040 832 967 1001 1040 926 l 1040 622 b 1024 550 1040 596 1033 571 "},"4":{"ha":1014,"x_min":0,"x_max":0,"o":"m 975 372 l 975 258 l 819 258 l 819 0 l 706 0 l 706 258 l 8 258 l 8 386 b 692 1001 238 593 464 793 l 819 1001 l 819 372 m 154 372 l 706 372 l 706 819 "},"5":{"ha":1153,"x_min":0,"x_max":0,"o":"m 193 628 b 247 572 193 597 218 572 l 921 572 b 1089 404 1014 572 1089 499 l 1089 168 b 921 0 1089 75 1014 0 l 247 0 b 79 168 153 0 79 75 l 79 208 l 193 208 l 193 168 b 247 114 193 139 218 114 l 921 114 b 975 168 950 114 975 139 l 975 404 b 921 458 975 433 950 458 l 79 458 l 79 1001 l 1089 1001 l 1089 886 l 247 886 b 193 832 218 886 193 861 "},"6":{"ha":1139,"x_min":0,"x_max":0,"o":"m 921 576 b 1089 408 1014 576 1089 503 l 1089 168 b 921 0 1089 75 1014 0 l 247 0 b 79 168 153 0 79 75 l 79 832 b 247 1001 79 926 153 1001 l 914 1001 l 914 886 l 247 886 b 193 832 218 886 193 861 l 193 632 b 247 576 193 601 218 576 m 975 408 b 921 463 975 438 950 463 l 193 463 l 193 168 b 247 114 193 139 218 114 l 921 114 b 975 168 950 114 975 139 "},"7":{"ha":917,"x_min":0,"x_max":0,"o":"m 4 886 l 4 1001 l 671 1001 b 839 832 764 1001 839 926 l 839 0 l 725 0 l 725 832 b 671 886 725 861 700 886 "},"8":{"ha":1158,"x_min":0,"x_max":0,"o":"m 1089 628 b 1047 515 1089 590 1074 551 b 1089 404 1074 481 1089 442 l 1089 168 b 921 0 1089 75 1014 0 l 247 0 b 79 168 153 0 79 75 l 79 404 b 121 515 79 442 94 481 b 79 628 94 551 79 590 l 79 832 b 247 1001 79 926 153 1001 l 921 1001 b 1089 860 999 1001 1068 932 m 975 404 b 921 458 975 433 950 458 l 247 458 b 193 404 218 458 193 433 l 193 168 b 247 114 193 139 218 114 l 921 114 b 975 168 950 114 975 139 m 975 831 b 921 885 975 860 950 885 l 247 885 b 193 831 218 885 193 860 l 193 611 b 247 557 193 582 218 557 l 921 557 b 975 611 950 557 975 582 "},"9":{"ha":1150,"x_min":0,"x_max":0,"o":"m 240 424 b 71 592 146 424 71 499 l 71 832 b 240 1001 71 926 146 1001 l 914 1001 b 1082 832 1007 1001 1082 926 l 1082 168 b 914 0 1082 75 1007 0 l 240 0 b 81 114 167 0 103 47 l 914 114 b 968 168 943 114 968 139 l 968 369 b 914 424 968 399 943 424 m 186 592 b 240 538 186 563 211 538 l 968 538 l 968 832 b 914 886 968 861 943 886 l 240 886 b 186 832 211 886 186 861 "}," ":{"ha":378,"x_min":0,"x_max":0,"o":""},"Æ":{"ha":1910,"x_min":0,"x_max":0,"o":"m 1075 557 l 1718 557 l 1718 443 l 1075 443 l 1075 113 l 1875 113 l 1875 0 l 963 0 l 963 365 l 188 365 l 188 0 l 75 0 l 75 833 b 242 1000 75 926 149 1000 l 1875 1000 l 1875 888 l 1075 888 m 963 833 b 908 888 963 863 938 888 l 242 888 b 188 833 213 888 188 863 l 188 478 l 963 478 "},"Á":{"ha":1161,"x_min":0,"x_max":0,"o":"m 914 1000 b 1081 833 1007 1000 1081 926 l 1081 0 l 968 0 l 968 365 l 193 365 l 193 0 l 81 0 l 81 833 b 247 1000 81 926 154 1000 m 968 478 l 968 833 b 914 888 968 863 943 888 l 247 888 b 193 833 218 888 193 863 l 193 478 m 526 1393 l 636 1393 l 589 1200 l 478 1200 "},"Â":{"ha":1161,"x_min":0,"x_max":0,"o":"m 914 1000 b 1081 833 1007 1000 1081 926 l 1081 0 l 968 0 l 968 365 l 193 365 l 193 0 l 81 0 l 81 833 b 247 1000 81 926 154 1000 m 968 478 l 968 833 b 914 888 968 863 943 888 l 247 888 b 193 833 218 888 193 863 l 193 478 m 411 1200 l 510 1363 l 592 1363 l 690 1200 l 632 1200 l 551 1318 l 468 1200 "},"Ä":{"ha":1161,"x_min":0,"x_max":0,"o":"m 914 1000 b 1081 833 1007 1000 1081 926 l 1081 0 l 968 0 l 968 365 l 193 365 l 193 0 l 81 0 l 81 833 b 247 1000 81 926 154 1000 m 968 478 l 968 833 b 914 888 968 863 943 888 l 247 888 b 193 833 218 888 193 863 l 193 478 m 751 1188 l 638 1188 l 638 1301 l 751 1301 m 503 1188 l 388 1188 l 388 1301 l 503 1301 "},"À":{"ha":1161,"x_min":0,"x_max":0,"o":"m 914 1000 b 1081 833 1007 1000 1081 926 l 1081 0 l 968 0 l 968 365 l 193 365 l 193 0 l 81 0 l 81 833 b 247 1000 81 926 154 1000 m 968 478 l 968 833 b 914 888 968 863 943 888 l 247 888 b 193 833 218 888 193 863 l 193 478 m 638 1201 l 526 1201 b 478 1394 508 1276 496 1324 l 590 1394 "},"Å":{"ha":1161,"x_min":0,"x_max":0,"o":"m 914 1000 b 1081 833 1007 1000 1081 926 l 1081 0 l 968 0 l 968 365 l 193 365 l 193 0 l 81 0 l 81 833 b 247 1000 81 926 154 1000 m 968 478 l 968 833 b 914 888 968 863 943 888 l 247 888 b 193 833 218 888 193 863 l 193 478 m 619 1363 b 694 1289 661 1363 694 1329 l 694 1214 b 619 1140 694 1174 661 1140 l 542 1140 b 467 1214 500 1140 467 1174 l 467 1289 b 542 1363 467 1329 500 1363 m 626 1196 b 639 1210 633 1196 639 1201 l 639 1293 b 626 1307 639 1301 633 1307 l 535 1307 b 522 1293 528 1307 522 1301 l 522 1210 b 535 1196 522 1201 528 1196 "},"Ã":{"ha":1161,"x_min":0,"x_max":0,"o":"m 914 1000 b 1081 833 1007 1000 1081 926 l 1081 0 l 968 0 l 968 365 l 193 365 l 193 0 l 81 0 l 81 833 b 247 1000 81 926 154 1000 m 968 478 l 968 833 b 914 888 968 863 943 888 l 247 888 b 193 833 218 888 193 863 l 193 478 m 715 1274 b 807 1297 747 1274 778 1283 l 807 1226 b 715 1207 781 1217 749 1207 b 422 1307 615 1207 536 1307 b 336 1296 400 1307 364 1306 l 336 1361 b 422 1374 361 1369 389 1374 b 713 1274 526 1374 607 1288 "},"B":{"ha":1156,"x_min":0,"x_max":0,"o":"m 1026 524 b 1082 400 1060 493 1082 447 l 1082 167 b 915 0 1082 74 1008 0 l 82 0 l 82 1000 l 872 1000 b 1039 833 965 1000 1039 926 l 1039 621 b 1021 547 1039 594 1032 569 m 249 888 b 194 833 219 888 194 863 l 194 621 b 249 567 194 592 219 567 l 872 567 b 925 621 901 567 925 592 l 925 833 b 872 888 925 863 901 888 m 969 400 b 915 454 969 429 944 454 l 249 454 b 194 400 219 454 194 429 l 194 167 b 249 113 194 138 219 113 l 915 113 b 969 167 944 113 969 138 "},"C":{"ha":1142,"x_min":0,"x_max":0,"o":"m 244 888 b 190 833 215 888 190 863 l 190 167 b 244 113 190 138 215 113 l 1075 113 l 1075 0 l 244 0 b 78 167 151 0 78 74 l 78 833 b 244 1000 78 926 151 1000 l 1075 1000 l 1075 888 "},"":{"ha":1075,"x_min":0,"x_max":0,"o":"m 6 0 l 856 1001 l 1011 1001 l 1011 0 l 896 0 l 896 281 l 390 281 l 154 0 m 488 396 l 896 396 l 896 874 "},"Ç":{"ha":1142,"x_min":0,"x_max":0,"o":"m 244 888 b 190 833 215 888 190 863 l 190 167 b 244 113 190 138 215 113 l 1075 113 l 1075 0 l 626 0 l 579 -193 l 468 -193 l 517 0 l 244 0 b 78 167 151 0 78 74 l 78 833 b 244 1000 78 926 151 1000 l 1075 1000 l 1075 888 "},"D":{"ha":1158,"x_min":0,"x_max":0,"o":"m 914 1000 b 1081 833 1007 1000 1081 926 l 1081 167 b 914 0 1081 74 1007 0 l 81 0 l 81 1000 m 968 833 b 914 888 968 863 943 888 l 247 888 b 193 833 218 888 193 863 l 193 167 b 247 113 193 138 218 113 l 914 113 b 968 167 943 113 968 138 "},"E":{"ha":1064,"x_min":0,"x_max":0,"o":"m 993 888 l 193 888 l 193 557 l 836 557 l 836 443 l 193 443 l 193 113 l 993 113 l 993 0 l 81 0 l 81 1000 l 993 1000 "},"É":{"ha":1064,"x_min":0,"x_max":0,"o":"m 993 888 l 193 888 l 193 557 l 836 557 l 836 443 l 193 443 l 193 113 l 993 113 l 993 0 l 81 0 l 81 1000 l 993 1000 m 478 1394 l 588 1394 l 540 1201 l 429 1201 "},"Ê":{"ha":1064,"x_min":0,"x_max":0,"o":"m 993 888 l 193 888 l 193 557 l 836 557 l 836 443 l 193 443 l 193 113 l 993 113 l 993 0 l 81 0 l 81 1000 l 993 1000 m 363 1200 l 461 1363 l 543 1363 l 642 1200 l 583 1200 l 503 1318 l 419 1200 "},"Ë":{"ha":1064,"x_min":0,"x_max":0,"o":"m 993 888 l 193 888 l 193 557 l 836 557 l 836 443 l 193 443 l 193 113 l 993 113 l 993 0 l 81 0 l 81 1000 l 993 1000 m 703 1201 l 589 1201 l 589 1315 l 703 1315 m 454 1201 l 339 1201 l 339 1315 l 454 1315 "},"È":{"ha":1064,"x_min":0,"x_max":0,"o":"m 993 888 l 193 888 l 193 557 l 836 557 l 836 443 l 193 443 l 193 113 l 993 113 l 993 0 l 81 0 l 81 1000 l 993 1000 m 589 1201 l 478 1201 b 429 1394 460 1276 447 1324 l 542 1394 "},"€":{"ha":1110,"x_min":0,"x_max":0,"o":"m 1057 114 l 1057 0 l 364 0 b 194 168 269 0 194 75 l 194 319 l 49 319 l 49 433 l 194 433 l 194 576 l 49 576 l 49 692 l 194 692 l 194 832 b 364 1001 194 926 269 1001 l 1057 1001 l 1057 886 l 364 886 b 310 832 335 886 310 861 l 310 692 l 899 692 l 899 576 l 310 576 l 310 433 l 899 433 l 899 319 l 310 319 l 310 168 b 364 114 310 139 335 114 "},"F":{"ha":1004,"x_min":0,"x_max":0,"o":"m 993 1000 l 993 888 l 193 888 l 193 557 l 836 557 l 836 443 l 193 443 l 193 0 l 81 0 l 81 1000 "},"G":{"ha":1153,"x_min":0,"x_max":0,"o":"m 1078 793 l 965 793 l 965 833 b 911 888 965 863 940 888 l 244 888 b 190 833 215 888 190 863 l 190 167 b 244 113 190 138 215 113 l 911 113 b 965 167 940 113 965 138 l 965 414 l 718 414 l 718 528 l 1078 528 l 1078 167 b 911 0 1078 74 1004 0 l 244 0 b 78 167 151 0 78 74 l 78 833 b 244 1000 78 926 151 1000 l 911 1000 b 1078 833 1004 1000 1078 926 "},"H":{"ha":1182,"x_min":0,"x_max":0,"o":"m 1104 1000 l 1104 0 l 990 0 l 990 443 l 192 443 l 192 0 l 79 0 l 79 1000 l 192 1000 l 192 557 l 990 557 l 990 1000 "},"I":{"ha":306,"x_min":0,"x_max":0,"o":"m 79 1000 l 192 1000 l 192 0 l 79 0 "},"Í":{"ha":306,"x_min":0,"x_max":0,"o":"m 79 1000 l 192 1000 l 192 0 l 79 0 m 99 1394 l 208 1394 l 161 1201 l 50 1201 "},"Î":{"ha":306,"x_min":0,"x_max":0,"o":"m 79 1000 l 192 1000 l 192 0 l 79 0 m -17 1200 l 82 1363 l 164 1363 l 263 1200 l 204 1200 l 124 1318 l 40 1200 "},"Ï":{"ha":306,"x_min":0,"x_max":0,"o":"m 79 1000 l 192 1000 l 192 0 l 79 0 m 324 1201 l 210 1201 l 210 1315 l 324 1315 m 75 1201 l -40 1201 l -40 1315 l 75 1315 "},"Ì":{"ha":306,"x_min":0,"x_max":0,"o":"m 79 1000 l 192 1000 l 192 0 l 79 0 m 210 1201 l 99 1201 b 50 1394 81 1276 68 1324 l 163 1394 "},"J":{"ha":1083,"x_min":0,"x_max":0,"o":"m 893 1000 l 1006 1000 l 1006 167 b 839 0 1006 74 932 0 l 172 0 b 6 167 79 0 6 74 l 6 246 l 118 246 l 118 167 b 172 113 118 138 143 113 l 839 113 b 893 167 868 113 893 138 "},"K":{"ha":1107,"x_min":0,"x_max":0,"o":"m 1032 1000 l 614 500 l 1033 0 l 888 0 l 515 443 l 193 443 l 193 0 l 79 0 l 79 1000 l 193 1000 l 193 557 l 515 557 b 888 1000 636 701 767 856 "},"L":{"ha":1082,"x_min":0,"x_max":0,"o":"m 79 1001 l 192 1001 l 192 113 l 1079 113 l 1079 0 l 79 0 "},"M":{"ha":1289,"x_min":0,"x_max":0,"o":"m 1063 1000 l 1217 1000 l 1217 0 l 1104 0 l 1104 872 l 647 329 l 190 872 l 190 0 l 78 0 l 78 1000 l 232 1000 l 647 506 "},"N":{"ha":1156,"x_min":0,"x_max":0,"o":"m 965 1000 l 1078 1000 l 1078 0 l 924 0 l 190 872 l 190 0 l 78 0 l 78 1000 l 232 1000 l 965 128 "},"Ñ":{"ha":1156,"x_min":0,"x_max":0,"o":"m 965 1000 l 1078 1000 l 1078 0 l 924 0 l 190 872 l 190 0 l 78 0 l 78 1000 l 232 1000 l 965 128 m 713 1274 b 804 1297 744 1274 775 1283 l 804 1226 b 713 1207 778 1217 746 1207 b 419 1307 613 1207 533 1307 b 333 1296 397 1307 361 1306 l 333 1361 b 419 1374 358 1369 386 1374 b 710 1274 524 1374 604 1288 "},"O":{"ha":1150,"x_min":0,"x_max":0,"o":"m 908 1000 b 1075 833 1001 1000 1075 926 l 1075 167 b 908 0 1075 74 1001 0 l 242 0 b 75 167 149 0 75 74 l 75 833 b 242 1000 75 926 149 1000 m 908 113 b 963 167 938 113 963 138 l 963 833 b 908 888 963 863 938 888 l 242 888 b 188 833 213 888 188 863 l 188 167 b 242 113 188 138 213 113 "},"Œ":{"ha":1908,"x_min":0,"x_max":0,"o":"m 1074 557 l 1717 557 l 1717 443 l 1074 443 l 1074 113 l 1874 113 l 1874 0 l 240 0 b 74 167 147 0 74 74 l 74 833 b 240 1000 74 926 147 1000 l 1874 1000 l 1874 888 l 1074 888 m 907 113 b 961 167 936 113 961 138 l 961 833 b 907 888 961 863 936 888 l 240 888 b 186 833 211 888 186 863 l 186 167 b 240 113 186 138 211 113 l 907 113 "},"Ó":{"ha":1150,"x_min":0,"x_max":0,"o":"m 908 1000 b 1075 833 1001 1000 1075 926 l 1075 167 b 908 0 1075 74 1001 0 l 242 0 b 75 167 149 0 75 74 l 75 833 b 242 1000 75 926 149 1000 m 908 113 b 963 167 938 113 963 138 l 963 833 b 908 888 963 863 938 888 l 242 888 b 188 833 213 888 188 863 l 188 167 b 242 113 188 138 213 113 m 521 1394 l 631 1394 l 583 1201 l 472 1201 "},"Ô":{"ha":1150,"x_min":0,"x_max":0,"o":"m 908 1000 b 1075 833 1001 1000 1075 926 l 1075 167 b 908 0 1075 74 1001 0 l 242 0 b 75 167 149 0 75 74 l 75 833 b 242 1000 75 926 149 1000 m 908 113 b 963 167 938 113 963 138 l 963 833 b 908 888 963 863 938 888 l 242 888 b 188 833 213 888 188 863 l 188 167 b 242 113 188 138 213 113 m 406 1200 l 504 1363 l 586 1363 l 685 1200 l 626 1200 l 546 1318 l 463 1200 "},"Ö":{"ha":1150,"x_min":0,"x_max":0,"o":"m 908 1000 b 1075 833 1001 1000 1075 926 l 1075 167 b 908 0 1075 74 1001 0 l 242 0 b 75 167 149 0 75 74 l 75 833 b 242 1000 75 926 149 1000 m 908 113 b 963 167 938 113 963 138 l 963 833 b 908 888 963 863 938 888 l 242 888 b 188 833 213 888 188 863 l 188 167 b 242 113 188 138 213 113 m 746 1201 l 632 1201 l 632 1315 l 746 1315 m 497 1201 l 382 1201 l 382 1315 l 497 1315 "},"Ò":{"ha":1150,"x_min":0,"x_max":0,"o":"m 908 1000 b 1075 833 1001 1000 1075 926 l 1075 167 b 908 0 1075 74 1001 0 l 242 0 b 75 167 149 0 75 74 l 75 833 b 242 1000 75 926 149 1000 m 908 113 b 963 167 938 113 963 138 l 963 833 b 908 888 963 863 938 888 l 242 888 b 188 833 213 888 188 863 l 188 167 b 242 113 188 138 213 113 m 632 1201 l 521 1201 b 472 1394 503 1276 490 1324 l 585 1394 "},"Õ":{"ha":1150,"x_min":0,"x_max":0,"o":"m 908 1000 b 1075 833 1001 1000 1075 926 l 1075 167 b 908 0 1075 74 1001 0 l 242 0 b 75 167 149 0 75 74 l 75 833 b 242 1000 75 926 149 1000 m 908 113 b 963 167 938 113 963 138 l 963 833 b 908 888 963 863 938 888 l 242 888 b 188 833 213 888 188 863 l 188 167 b 242 113 188 138 213 113 m 710 1274 b 801 1297 742 1274 772 1283 l 801 1226 b 710 1207 775 1217 743 1207 b 417 1307 610 1207 531 1307 b 331 1296 394 1307 358 1306 l 331 1361 b 417 1374 356 1369 383 1374 b 707 1274 521 1374 601 1288 "},"P":{"ha":1099,"x_min":0,"x_max":0,"o":"m 911 999 b 1078 832 1004 999 1078 924 l 1078 539 b 911 372 1078 447 1004 372 l 244 372 b 190 378 232 372 211 375 l 190 0 l 78 0 l 78 999 m 965 832 b 911 886 965 861 940 886 l 244 886 b 190 832 215 886 190 861 l 190 539 b 244 486 190 510 215 486 l 911 486 b 965 539 940 486 965 510 "},"Q":{"ha":1228,"x_min":0,"x_max":0,"o":"m 1206 113 l 1206 0 l 242 0 b 75 167 149 0 75 74 l 75 833 b 242 1000 75 926 149 1000 l 908 1000 b 1075 833 1001 1000 1075 926 l 1075 167 b 1069 113 1075 154 1072 133 m 908 113 b 963 167 938 113 963 138 l 963 833 b 908 888 963 863 938 888 l 242 888 b 188 833 213 888 188 863 l 188 167 b 242 113 188 138 213 113 "},"R":{"ha":1146,"x_min":0,"x_max":0,"o":"m 1076 539 b 910 372 1076 447 1003 372 l 757 372 l 1071 0 l 922 0 l 610 372 l 243 372 b 189 378 229 372 210 375 l 189 0 l 76 0 l 76 999 l 910 999 b 1076 832 1003 999 1076 924 m 910 486 b 963 539 939 486 963 510 l 963 832 b 910 886 963 861 939 886 l 243 886 b 189 832 214 886 189 861 l 189 539 b 243 486 189 510 214 486 "},"S":{"ha":1142,"x_min":0,"x_max":0,"o":"m 1071 794 l 958 794 l 958 833 b 904 888 958 863 933 888 l 238 888 b 183 833 208 888 183 863 l 183 610 b 238 557 183 581 208 557 l 904 557 b 1071 390 997 557 1071 482 l 1071 167 b 904 0 1071 74 997 0 l 238 0 b 71 167 144 0 71 74 l 71 206 l 183 206 l 183 167 b 238 113 183 138 208 113 l 904 113 b 958 167 933 113 958 138 l 958 390 b 904 443 958 419 933 443 l 238 443 b 71 610 144 443 71 518 l 71 833 b 238 1000 71 926 144 1000 l 904 1000 b 1071 833 997 1000 1071 926 "},"Š":{"ha":1142,"x_min":0,"x_max":0,"o":"m 1071 794 l 958 794 l 958 833 b 904 888 958 863 933 888 l 238 888 b 183 833 208 888 183 863 l 183 610 b 238 557 183 581 208 557 l 904 557 b 1071 390 997 557 1071 482 l 1071 167 b 904 0 1071 74 997 0 l 238 0 b 71 167 144 0 71 74 l 71 206 l 183 206 l 183 167 b 238 113 183 138 208 113 l 904 113 b 958 167 933 113 958 138 l 958 390 b 904 443 958 419 933 443 l 238 443 b 71 610 144 443 71 518 l 71 833 b 238 1000 71 926 144 1000 l 904 1000 b 1071 833 997 1000 1071 926 m 460 1363 l 543 1244 l 624 1363 l 681 1363 l 583 1200 l 501 1200 l 401 1363 "},"T":{"ha":1054,"x_min":0,"x_max":0,"o":"m 1028 1000 l 1028 888 l 585 888 l 585 0 l 472 0 l 472 888 l 28 888 l 28 1000 "},"U":{"ha":1150,"x_min":0,"x_max":0,"o":"m 963 1000 l 1075 1000 l 1075 167 b 908 0 1075 74 1001 0 l 242 0 b 75 167 149 0 75 74 l 75 1000 l 188 1000 l 188 167 b 242 113 188 138 213 113 l 908 113 b 963 167 938 113 963 138 "},"Ú":{"ha":1150,"x_min":0,"x_max":0,"o":"m 963 1000 l 1075 1000 l 1075 167 b 908 0 1075 74 1001 0 l 242 0 b 75 167 149 0 75 74 l 75 1000 l 188 1000 l 188 167 b 242 113 188 138 213 113 l 908 113 b 963 167 938 113 963 138 m 521 1394 l 631 1394 l 583 1201 l 472 1201 "},"Û":{"ha":1150,"x_min":0,"x_max":0,"o":"m 963 1000 l 1075 1000 l 1075 167 b 908 0 1075 74 1001 0 l 242 0 b 75 167 149 0 75 74 l 75 1000 l 188 1000 l 188 167 b 242 113 188 138 213 113 l 908 113 b 963 167 938 113 963 138 m 406 1200 l 504 1363 l 586 1363 l 685 1200 l 626 1200 l 546 1318 l 463 1200 "},"Ü":{"ha":1150,"x_min":0,"x_max":0,"o":"m 963 1000 l 1075 1000 l 1075 167 b 908 0 1075 74 1001 0 l 242 0 b 75 167 149 0 75 74 l 75 1000 l 188 1000 l 188 167 b 242 113 188 138 213 113 l 908 113 b 963 167 938 113 963 138 m 746 1201 l 632 1201 l 632 1315 l 746 1315 m 497 1201 l 382 1201 l 382 1315 l 497 1315 "},"Ù":{"ha":1150,"x_min":0,"x_max":0,"o":"m 963 1000 l 1075 1000 l 1075 167 b 908 0 1075 74 1001 0 l 242 0 b 75 167 149 0 75 74 l 75 1000 l 188 1000 l 188 167 b 242 113 188 138 213 113 l 908 113 b 963 167 938 113 963 138 m 632 1201 l 521 1201 b 472 1394 503 1276 490 1324 l 585 1394 "},"V":{"ha":1393,"x_min":0,"x_max":0,"o":"m 1204 1000 l 1336 1000 b 758 0 1138 654 957 344 l 628 0 b 49 1000 433 336 240 664 l 181 1000 l 693 110 "},"":{"ha":1075,"x_min":0,"x_max":0,"o":"m 190 1001 l 190 129 b 931 1001 422 407 697 721 l 1079 1001 l 231 0 l 75 0 l 75 1001 "},"W":{"ha":1638,"x_min":0,"x_max":0,"o":"m 1594 1000 l 1231 0 l 1132 0 l 821 854 l 510 0 l 413 0 l 49 1000 l 168 1000 l 461 197 b 753 1000 550 443 663 751 l 889 1000 l 1182 197 b 1472 1000 1269 443 1383 751 "},"":{"ha":1626,"x_min":0,"x_max":0,"o":"m 1626 1000 l 779 0 l 624 0 l 624 476 l 224 0 l 68 0 l 68 1000 l 182 1000 l 182 129 b 924 1000 415 407 689 719 l 1069 1000 l 738 614 l 738 129 b 1479 1000 971 407 1244 719 "},"":{"ha":1622,"x_min":0,"x_max":0,"o":"m 0 1000 l 150 1000 l 890 129 l 890 614 l 557 1000 l 704 1000 l 1446 129 l 1446 1000 l 1560 1000 l 1560 0 l 1406 0 l 1006 476 l 1006 0 l 850 0 "},"X":{"ha":1128,"x_min":0,"x_max":0,"o":"m 1049 1000 l 629 500 b 1050 0 764 338 911 163 l 904 0 l 557 413 l 208 0 l 64 0 l 483 500 l 64 1000 l 208 1000 l 557 588 l 904 1000 "},"Y":{"ha":1119,"x_min":0,"x_max":0,"o":"m 1056 1000 l 596 376 l 596 0 l 483 0 l 483 376 b 24 1000 335 581 175 796 l 153 1000 l 540 511 b 924 1000 661 667 801 844 "},"Ý":{"ha":1119,"x_min":0,"x_max":0,"o":"m 1056 1000 l 596 376 l 596 0 l 483 0 l 483 376 b 24 1000 335 581 175 796 l 153 1000 l 540 511 b 924 1000 661 667 801 844 m 506 1394 l 615 1394 l 568 1201 l 457 1201 "},"Ÿ":{"ha":1119,"x_min":0,"x_max":0,"o":"m 1056 1000 l 596 376 l 596 0 l 483 0 l 483 376 b 24 1000 335 581 175 796 l 153 1000 l 540 511 b 924 1000 661 667 801 844 m 731 1201 l 617 1201 l 617 1315 l 731 1315 m 482 1201 l 367 1201 l 367 1315 l 482 1315 "},"Z":{"ha":1140,"x_min":0,"x_max":0,"o":"m 71 1000 l 1071 1000 l 1071 846 l 199 113 l 1071 113 l 1071 0 l 71 0 l 71 154 l 943 888 l 71 888 "},"Ž":{"ha":1140,"x_min":0,"x_max":0,"o":"m 71 1000 l 1071 1000 l 1071 846 l 199 113 l 1071 113 l 1071 0 l 71 0 l 71 154 l 943 888 l 71 888 m 458 1363 l 542 1244 l 622 1363 l 679 1363 l 582 1200 l 500 1200 l 400 1363 "},"a":{"ha":964,"x_min":0,"x_max":0,"o":"m 724 806 b 893 638 818 806 893 731 l 893 0 l 240 0 b 72 168 147 0 72 75 l 72 460 l 778 460 l 778 638 b 724 692 778 667 754 692 l 72 692 l 72 806 l 724 806 m 778 346 l 186 346 l 186 168 b 240 114 186 139 211 114 l 778 114 "},"á":{"ha":1007,"x_min":0,"x_max":0,"o":"m 724 806 b 893 638 818 806 893 731 l 893 0 l 240 0 b 72 168 147 0 72 75 l 72 460 l 778 460 l 778 638 b 724 692 778 667 754 692 l 72 692 l 72 806 l 724 806 m 778 346 l 186 346 l 186 168 b 240 114 186 139 211 114 l 778 114 m 449 1253 l 558 1253 l 511 1060 l 400 1060 "},"â":{"ha":1007,"x_min":0,"x_max":0,"o":"m 724 806 b 893 638 818 806 893 731 l 893 0 l 240 0 b 72 168 147 0 72 75 l 72 460 l 778 460 l 778 638 b 724 692 778 667 754 692 l 72 692 l 72 806 l 724 806 m 778 346 l 186 346 l 186 168 b 240 114 186 139 211 114 l 778 114 m 333 1060 l 432 1222 l 514 1222 l 613 1060 l 554 1060 l 474 1178 l 390 1060 "},"´":{"ha":296,"x_min":0,"x_max":0,"o":"m 94 1404 l 204 1404 l 157 1211 l 46 1211 "},"ä":{"ha":1007,"x_min":0,"x_max":0,"o":"m 724 806 b 893 638 818 806 893 731 l 893 0 l 240 0 b 72 168 147 0 72 75 l 72 460 l 778 460 l 778 638 b 724 692 778 667 754 692 l 72 692 l 72 806 l 724 806 m 778 346 l 186 346 l 186 168 b 240 114 186 139 211 114 l 778 114 m 674 1060 l 560 1060 l 560 1174 l 674 1174 m 425 1060 l 310 1060 l 310 1174 l 425 1174 "},"æ":{"ha":1636,"x_min":0,"x_max":0,"o":"m 1431 806 b 1599 638 1525 806 1599 731 l 1599 346 l 893 346 l 893 163 b 947 114 896 135 919 114 l 1599 114 l 1599 0 l 242 0 b 74 168 147 0 74 75 l 74 460 l 779 460 l 779 638 b 725 692 779 667 754 692 l 74 692 l 74 806 l 1431 806 m 779 346 l 188 346 l 188 168 b 242 114 188 139 213 114 l 779 114 m 1485 460 l 1485 638 b 1431 692 1485 667 1460 692 l 947 692 b 893 638 918 692 893 667 l 893 460 "},"à":{"ha":1007,"x_min":0,"x_max":0,"o":"m 724 806 b 893 638 818 806 893 731 l 893 0 l 240 0 b 72 168 147 0 72 75 l 72 460 l 778 460 l 778 638 b 724 692 778 667 754 692 l 72 692 l 72 806 l 724 806 m 778 346 l 186 346 l 186 168 b 240 114 186 139 211 114 l 778 114 m 560 1060 l 449 1060 b 400 1253 431 1135 418 1182 l 513 1253 "},"&":{"ha":1303,"x_min":0,"x_max":0,"o":"m 1269 122 l 1269 22 l 1079 129 b 915 0 1049 53 986 0 l 242 0 b 74 168 149 0 74 75 l 74 467 b 211 557 74 500 119 557 b 132 690 144 607 132 653 l 132 829 b 300 999 132 924 207 999 l 871 999 b 1040 857 949 999 1019 929 l 1040 781 l 925 781 l 925 828 b 871 882 925 857 901 882 l 300 882 b 246 828 271 882 246 857 l 246 635 l 969 269 l 969 463 l 1083 463 l 1083 232 m 915 114 b 971 164 935 114 958 135 l 263 521 l 242 521 b 188 467 213 521 188 496 l 188 168 b 242 114 188 139 213 114 "},"å":{"ha":1007,"x_min":0,"x_max":0,"o":"m 724 806 b 893 638 818 806 893 731 l 893 0 l 240 0 b 72 168 147 0 72 75 l 72 460 l 778 460 l 778 638 b 724 692 778 667 754 692 l 72 692 l 72 806 l 724 806 m 778 346 l 186 346 l 186 168 b 240 114 186 139 211 114 l 778 114 m 542 1219 b 617 1146 583 1219 617 1186 l 617 1071 b 542 997 617 1031 583 997 l 464 997 b 389 1071 422 997 389 1031 l 389 1146 b 464 1219 389 1186 422 1219 m 549 1053 b 561 1067 556 1053 561 1058 l 561 1150 b 549 1164 561 1158 556 1164 l 457 1164 b 444 1150 450 1164 444 1158 l 444 1067 b 457 1053 444 1058 450 1053 "},"~":{"ha":561,"x_min":0,"x_max":0,"o":"m 413 393 b 504 415 444 393 475 401 l 504 358 b 413 340 478 349 446 340 b 119 439 311 340 232 439 b 33 428 97 439 61 438 l 33 479 b 119 492 58 488 86 492 b 410 393 225 492 306 404 "},"*":{"ha":682,"x_min":0,"x_max":0,"o":"m 625 743 l 422 678 b 547 504 456 629 508 557 b 456 438 510 478 490 461 l 329 608 l 204 438 b 111 503 167 465 146 478 l 236 678 l 35 743 l 68 853 l 272 785 l 272 999 l 386 999 l 386 786 l 588 853 "},"@":{"ha":1154,"x_min":0,"x_max":0,"o":"m 650 721 b 818 553 743 721 818 646 l 818 353 l 975 353 l 975 831 b 921 885 975 860 950 885 l 247 885 b 193 831 218 885 193 860 l 193 168 b 247 114 193 139 218 114 l 1089 114 l 1089 0 l 247 0 b 79 168 153 0 79 75 l 79 831 b 247 1000 79 925 153 1000 l 921 1000 b 1089 831 1014 1000 1089 925 l 1089 267 l 518 267 b 350 436 424 267 350 342 l 350 553 b 518 721 350 646 424 721 m 733 353 l 733 582 b 679 636 733 611 708 636 l 489 636 b 435 582 460 636 435 611 l 435 407 b 489 353 435 376 460 353 "},"ã":{"ha":1007,"x_min":0,"x_max":0,"o":"m 724 806 b 893 638 818 806 893 731 l 893 0 l 240 0 b 72 168 147 0 72 75 l 72 460 l 778 460 l 778 638 b 724 692 778 667 754 692 l 72 692 l 72 806 l 724 806 m 778 346 l 186 346 l 186 168 b 240 114 186 139 211 114 l 778 114 m 638 1131 b 729 1154 669 1131 700 1140 l 729 1083 b 638 1064 703 1074 671 1064 b 344 1164 538 1064 458 1164 b 258 1153 322 1164 286 1163 l 258 1218 b 344 1231 283 1226 311 1231 b 635 1131 449 1231 529 1144 "},"b":{"ha":926,"x_min":0,"x_max":0,"o":"m 728 806 b 896 638 821 806 896 731 l 896 168 b 728 0 896 75 821 0 l 75 0 l 75 1069 l 189 1069 l 189 806 l 728 806 m 782 638 b 728 692 782 667 757 692 l 244 692 b 189 638 214 692 189 667 l 189 168 b 244 114 189 139 214 114 l 728 114 b 782 168 757 114 782 139 "},"\\":{"ha":722,"x_min":0,"x_max":0,"o":"m 710 1 l 7 863 l 7 1007 l 710 149 "},"|":{"ha":297,"x_min":0,"x_max":0,"o":"m 75 1169 l 189 1169 l 189 -160 l 75 -160 "},"{":{"ha":401,"x_min":0,"x_max":0,"o":"m 211 168 b 265 114 211 139 236 114 l 306 114 l 306 0 l 265 0 b 97 168 172 0 97 75 l 97 394 b 32 435 81 404 53 422 l 32 568 l 97 603 l 97 831 b 265 1000 97 925 172 1000 l 306 1000 l 306 885 l 265 885 b 211 831 236 885 211 860 l 211 593 l 94 500 l 211 404 "},"}":{"ha":401,"x_min":0,"x_max":0,"o":"m 165 403 l 282 499 l 165 590 l 165 831 b 111 885 165 860 140 885 l 71 885 l 71 1000 l 111 1000 b 279 831 204 1000 279 925 l 279 603 b 343 565 299 593 324 576 l 343 433 l 279 393 l 279 168 b 111 0 279 75 204 0 l 71 0 l 71 114 l 111 114 b 165 168 140 114 165 139 "},"[":{"ha":382,"x_min":0,"x_max":0,"o":"m 75 1001 l 283 1001 l 283 886 l 189 886 l 189 114 l 283 114 l 283 0 l 75 0 "},"]":{"ha":383,"x_min":0,"x_max":0,"o":"m 71 1001 l 279 1001 l 279 0 l 71 0 l 71 114 l 164 114 l 164 886 l 71 886 "},"˘":{"ha":399,"x_min":0,"x_max":0,"o":"m 313 1304 b 222 1211 311 1258 283 1211 l 146 1211 b 56 1304 86 1211 57 1258 l 100 1304 b 129 1257 100 1275 104 1257 l 240 1257 b 269 1296 263 1257 269 1272 b 269 1304 269 1299 269 1301 "},"•":{"ha":515,"x_min":0,"x_max":0,"o":"m 274 560 b 314 519 300 560 314 544 l 314 490 b 274 451 314 465 300 451 l 239 451 b 200 490 215 451 200 465 l 200 519 b 239 560 200 544 215 560 "},"c":{"ha":965,"x_min":0,"x_max":0,"o":"m 892 114 l 892 0 l 239 0 b 71 168 146 0 71 75 l 71 638 b 239 806 71 731 146 806 l 889 806 l 889 692 l 239 692 b 185 638 210 692 185 667 l 185 168 b 239 114 185 139 210 114 "},"ˇ":{"ha":413,"x_min":0,"x_max":0,"o":"m 96 1372 l 179 1254 l 260 1372 l 317 1372 l 219 1210 l 138 1210 l 38 1372 "},"ç":{"ha":963,"x_min":0,"x_max":0,"o":"m 892 114 l 892 0 l 536 0 l 489 -193 l 378 -193 l 426 0 l 239 0 b 71 168 146 0 71 75 l 71 638 b 239 806 71 731 146 806 l 889 806 l 889 692 l 239 692 b 185 638 210 692 185 667 l 185 168 b 239 114 185 139 210 114 "},"¸":{"ha":296,"x_min":0,"x_max":0,"o":"m 94 -44 l 204 -44 l 157 -237 l 46 -237 "},"¢":{"ha":883,"x_min":0,"x_max":0,"o":"m 513 706 l 513 114 l 863 114 l 863 0 l 513 0 l 513 -160 l 399 -160 l 399 0 l 214 0 b 46 168 119 0 46 75 l 46 651 b 214 821 46 746 119 821 l 399 821 l 399 1008 l 513 1008 l 513 821 l 863 821 l 863 706 m 399 706 l 214 706 b 160 651 185 706 160 681 l 160 168 b 214 114 160 139 185 114 l 399 114 "},"ˆ":{"ha":417,"x_min":0,"x_max":0,"o":"m 39 1210 l 138 1372 l 219 1372 l 318 1210 l 260 1210 l 179 1328 l 96 1210 "},":":{"ha":297,"x_min":0,"x_max":0,"o":"m 189 114 l 189 0 l 75 0 l 75 114 m 189 703 l 75 703 l 75 817 l 189 817 "},",":{"ha":268,"x_min":0,"x_max":0,"o":"m 189 114 l 189 -22 b 75 -182 189 -97 142 -160 l 75 114 "},"d":{"ha":926,"x_min":0,"x_max":0,"o":"m 853 1069 l 853 0 l 201 0 b 32 168 107 0 32 75 l 32 638 b 201 806 32 731 107 806 l 739 806 l 739 1069 m 685 114 b 739 168 714 114 739 139 l 739 638 b 685 692 739 667 714 692 l 201 692 b 147 638 172 692 147 667 l 147 168 b 201 114 147 139 172 114 "},"°":{"ha":610,"x_min":0,"x_max":0,"o":"m 363 1011 b 532 842 457 1011 532 936 l 532 725 b 363 557 532 632 457 557 l 232 557 b 63 725 138 557 63 632 l 63 842 b 232 1011 63 936 138 1011 m 393 642 b 447 696 422 642 447 667 l 447 871 b 393 925 447 901 422 925 l 201 925 b 147 871 172 925 147 901 l 147 696 b 201 642 147 667 172 642 "},"¨":{"ha":535,"x_min":0,"x_max":0,"o":"m 439 1211 l 325 1211 l 325 1325 l 439 1325 m 190 1211 l 75 1211 l 75 1325 l 190 1325 "},"÷":{"ha":706,"x_min":0,"x_max":0,"o":"m 683 354 l 25 354 l 25 468 l 683 468 m 413 115 l 413 1 l 299 1 l 299 115 m 413 690 l 299 690 l 299 804 l 413 804 "},"$":{"ha":1094,"x_min":0,"x_max":0,"o":"m 1058 793 l 943 793 l 943 832 b 889 886 943 861 918 886 l 610 886 l 610 558 l 889 558 b 1058 390 983 558 1058 483 l 1058 168 b 889 0 1058 75 983 0 l 610 0 l 610 -158 l 496 -158 l 496 0 l 215 0 b 47 168 122 0 47 75 l 47 208 l 161 208 l 161 168 b 215 114 161 139 186 114 l 496 114 l 496 444 l 215 444 b 47 613 122 444 47 518 l 47 832 b 215 1001 47 926 122 1001 l 496 1001 l 496 1160 l 610 1160 l 610 1001 l 889 1001 b 1058 832 983 1001 1058 926 m 610 444 l 610 114 l 889 114 b 943 168 918 114 943 139 l 943 390 b 889 444 943 419 918 444 m 496 886 l 215 886 b 161 832 186 886 161 861 l 161 613 b 215 558 161 583 186 558 l 496 558 "},"˙":{"ha":324,"x_min":0,"x_max":0,"o":"m 172 1374 b 229 1318 204 1374 229 1349 l 229 1268 b 172 1213 229 1238 204 1213 l 119 1213 b 63 1268 88 1213 63 1238 l 63 1318 b 119 1374 63 1349 88 1374 "},"ı":{"ha":297,"x_min":0,"x_max":0,"o":"m 72 806 l 186 806 l 186 0 l 72 0 "},"e":{"ha":961,"x_min":0,"x_max":0,"o":"m 722 806 b 892 638 817 806 892 731 l 892 346 l 185 346 l 185 168 b 239 114 185 139 210 114 l 892 114 l 892 0 l 239 0 b 71 168 146 0 71 75 l 71 638 b 239 806 71 731 146 806 l 722 806 m 776 460 l 776 638 b 722 692 776 667 753 692 l 239 692 b 185 638 210 692 185 667 l 185 460 "},"é":{"ha":886,"x_min":0,"x_max":0,"o":"m 722 806 b 892 638 817 806 892 731 l 892 346 l 185 346 l 185 168 b 239 114 185 139 210 114 l 892 114 l 892 0 l 239 0 b 71 168 146 0 71 75 l 71 638 b 239 806 71 731 146 806 l 722 806 m 776 460 l 776 638 b 722 692 776 667 753 692 l 239 692 b 185 638 210 692 185 667 l 185 460 m 389 1254 l 499 1254 l 451 1061 l 340 1061 "},"ê":{"ha":886,"x_min":0,"x_max":0,"o":"m 722 806 b 892 638 817 806 892 731 l 892 346 l 185 346 l 185 168 b 239 114 185 139 210 114 l 892 114 l 892 0 l 239 0 b 71 168 146 0 71 75 l 71 638 b 239 806 71 731 146 806 l 722 806 m 776 460 l 776 638 b 722 692 776 667 753 692 l 239 692 b 185 638 210 692 185 667 l 185 460 m 274 1060 l 372 1222 l 454 1222 l 553 1060 l 494 1060 l 414 1178 l 331 1060 "},"ë":{"ha":886,"x_min":0,"x_max":0,"o":"m 722 806 b 892 638 817 806 892 731 l 892 346 l 185 346 l 185 168 b 239 114 185 139 210 114 l 892 114 l 892 0 l 239 0 b 71 168 146 0 71 75 l 71 638 b 239 806 71 731 146 806 l 722 806 m 776 460 l 776 638 b 722 692 776 667 753 692 l 239 692 b 185 638 210 692 185 667 l 185 460 m 614 1060 l 500 1060 l 500 1174 l 614 1174 m 365 1060 l 250 1060 l 250 1174 l 365 1174 "},"è":{"ha":886,"x_min":0,"x_max":0,"o":"m 722 806 b 892 638 817 806 892 731 l 892 346 l 185 346 l 185 168 b 239 114 185 139 210 114 l 892 114 l 892 0 l 239 0 b 71 168 146 0 71 75 l 71 638 b 239 806 71 731 146 806 l 722 806 m 776 460 l 776 638 b 722 692 776 667 753 692 l 239 692 b 185 638 210 692 185 667 l 185 460 m 500 1060 l 389 1060 b 340 1253 371 1135 358 1182 l 453 1253 "},"…":{"ha":797,"x_min":0,"x_max":0,"o":"m 189 0 l 75 0 l 75 114 l 189 114 m 714 0 l 599 0 l 599 114 l 714 114 m 451 0 l 338 0 l 338 114 l 451 114 "},"—":{"ha":1142,"x_min":0,"x_max":0,"o":"m 1076 353 l 75 353 l 75 467 l 1076 467 "},"–":{"ha":983,"x_min":0,"x_max":0,"o":"m 910 353 l 75 353 l 75 467 l 910 467 "},"=":{"ha":886,"x_min":0,"x_max":0,"o":"m 800 210 l 82 210 l 82 324 l 800 324 m 800 488 l 82 488 l 82 601 l 800 601 "},"!":{"ha":306,"x_min":0,"x_max":0,"o":"m 81 0 l 81 114 l 194 114 l 194 0 m 81 1000 l 194 1000 l 194 282 l 81 282 "},"¡":{"ha":292,"x_min":0,"x_max":0,"o":"m 188 896 l 74 896 l 74 1011 l 188 1011 m 74 0 l 74 718 l 188 718 l 188 0 "},"f":{"ha":565,"x_min":0,"x_max":0,"o":"m 242 956 b 188 901 213 956 188 931 l 188 806 l 536 806 l 536 692 l 188 692 l 188 0 l 74 0 l 74 901 b 242 1069 74 996 147 1069 l 536 1069 l 536 956 l 242 956 "},"":{"ha":1004,"x_min":0,"x_max":0,"o":"m 979 372 l 979 258 l 824 258 l 824 0 l 710 0 l 710 258 l 13 258 l 13 388 l 536 1001 l 663 1001 l 663 958 l 132 372 l 710 372 l 710 590 l 824 590 l 824 372 "},"g":{"ha":949,"x_min":0,"x_max":0,"o":"m 876 -149 b 708 -318 876 -243 803 -318 l 206 -318 l 206 -203 l 708 -203 b 763 -149 738 -203 763 -178 l 763 0 l 225 0 b 57 168 132 0 57 75 l 57 638 b 225 806 57 731 132 806 l 708 806 b 876 638 803 806 876 731 l 876 -149 m 708 114 b 763 168 738 114 763 139 l 763 638 b 708 692 763 667 738 692 l 225 692 b 171 638 196 692 171 667 l 171 168 b 225 114 171 139 196 114 "},"ß":{"ha":1157,"x_min":0,"x_max":0,"o":"m 1089 632 b 1047 519 1089 594 1074 556 b 1089 408 1074 485 1089 446 l 1089 168 b 921 0 1089 75 1014 0 l 394 0 l 394 114 l 921 114 b 975 168 950 114 975 139 l 975 408 b 921 463 975 438 950 463 l 394 463 l 394 561 l 921 561 b 975 615 950 561 975 586 l 975 840 b 921 894 975 869 950 894 l 247 894 b 193 840 218 894 193 869 l 193 0 l 79 0 l 79 842 b 247 1011 79 936 153 1011 l 921 1011 b 1089 869 999 1011 1068 942 "},"`":{"ha":296,"x_min":0,"x_max":0,"o":"m 204 1211 l 93 1211 b 44 1404 75 1286 63 1333 l 157 1404 "},">":{"ha":660,"x_min":0,"x_max":0,"o":"m 82 151 l 526 408 l 82 665 l 82 797 l 640 476 l 640 342 b 82 19 447 232 272 129 "},"h":{"ha":928,"x_min":0,"x_max":0,"o":"m 728 806 b 896 638 819 806 896 731 l 896 0 l 782 0 l 782 638 b 728 692 782 667 757 692 l 244 692 b 189 638 214 692 189 667 l 189 0 l 75 0 l 75 1069 l 189 1069 l 189 806 l 728 806 "},"-":{"ha":718,"x_min":0,"x_max":0,"o":"m 624 354 l 82 354 l 82 468 l 624 468 "},"i":{"ha":289,"x_min":0,"x_max":0,"o":"m 72 806 l 186 806 l 186 0 l 72 0 m 186 1069 l 186 956 l 72 956 l 72 1069 "},"í":{"ha":297,"x_min":0,"x_max":0,"o":"m 71 806 l 185 806 l 185 0 l 71 0 m 117 1253 l 226 1253 l 179 1060 l 68 1060 "},"î":{"ha":297,"x_min":0,"x_max":0,"o":"m 71 806 l 185 806 l 185 0 l 71 0 m -21 1060 l 78 1222 l 160 1222 l 258 1060 l 200 1060 l 119 1178 l 36 1060 "},"ï":{"ha":297,"x_min":0,"x_max":0,"o":"m 76 806 l 190 806 l 190 0 l 76 0 m 319 1063 l 206 1063 l 206 1176 l 319 1176 m 71 1063 l -44 1063 l -44 1176 l 71 1176 "},"ì":{"ha":297,"x_min":0,"x_max":0,"o":"m 78 806 l 192 806 l 192 0 l 78 0 m 182 1061 l 71 1061 b 22 1254 53 1136 40 1183 l 135 1254 "},"j":{"ha":332,"x_min":0,"x_max":0,"o":"m 250 1069 l 250 956 l 135 956 l 135 1069 m 250 -168 b 81 -337 250 -262 175 -337 l -260 -337 l -260 -222 l 81 -222 b 135 -168 110 -222 135 -197 l 135 806 l 250 806 "},"k":{"ha":897,"x_min":0,"x_max":0,"o":"m 878 806 l 513 403 l 876 0 l 728 0 l 411 346 l 189 346 l 189 0 l 75 0 l 75 1069 l 189 1069 l 189 460 l 411 460 l 728 806 "},"l":{"ha":419,"x_min":0,"x_max":0,"o":"m 186 1069 l 186 168 b 240 114 186 139 211 114 l 376 114 l 376 0 l 240 0 b 72 168 147 0 72 75 l 72 1069 "},"<":{"ha":657,"x_min":0,"x_max":0,"o":"m 565 154 l 565 22 l 7 344 l 7 479 l 565 800 l 565 668 l 121 411 "},"m":{"ha":1358,"x_min":0,"x_max":0,"o":"m 1139 806 b 1307 638 1233 806 1307 731 l 1307 0 l 1194 0 l 1194 638 b 1139 692 1194 667 1169 692 l 804 692 b 750 638 774 692 750 667 l 750 0 l 635 0 l 635 638 b 581 692 635 667 610 692 l 244 692 b 190 638 215 692 190 667 l 190 0 l 75 0 l 75 806 l 1139 806 "},"−":{"ha":718,"x_min":0,"x_max":0,"o":"m 624 354 l 82 354 l 82 468 l 624 468 "},"×":{"ha":758,"x_min":0,"x_max":0,"o":"m 369 503 b 517 703 413 561 472 642 l 664 703 l 444 418 l 664 132 l 517 132 l 369 332 b 224 132 328 274 268 193 l 75 132 l 294 418 b 74 703 225 508 144 611 l 224 703 l 369 503 "},"n":{"ha":967,"x_min":0,"x_max":0,"o":"m 728 806 b 896 638 821 806 896 731 l 896 0 l 782 0 l 782 638 b 728 692 782 667 757 692 l 244 692 b 189 638 214 692 189 667 l 189 0 l 75 0 l 75 806 l 728 806 "},"":{"ha":1089,"x_min":0,"x_max":0,"o":"m 860 999 b 1028 829 953 999 1028 924 l 1028 0 l 914 0 l 914 367 b 860 421 914 396 889 421 l 186 421 b 17 589 92 421 17 496 l 17 829 b 186 999 17 924 92 999 m 914 829 b 860 883 914 858 889 883 l 186 883 b 132 829 157 883 132 858 l 132 589 b 186 535 132 560 157 535 l 914 535 "},"ñ":{"ha":983,"x_min":0,"x_max":0,"o":"m 728 806 b 896 638 821 806 896 731 l 896 0 l 782 0 l 782 638 b 728 692 782 667 757 692 l 244 692 b 189 638 214 692 189 667 l 189 0 l 75 0 l 75 806 l 728 806 m 626 1129 b 718 1153 658 1129 689 1139 l 718 1082 b 626 1063 692 1072 660 1063 b 333 1163 526 1063 447 1163 b 247 1151 311 1163 275 1161 l 247 1217 b 333 1229 272 1225 300 1229 b 624 1129 438 1229 518 1143 "},"#":{"ha":1107,"x_min":0,"x_max":0,"o":"m 1074 657 l 906 657 l 807 351 l 1028 351 l 1028 238 l 771 238 b 697 0 749 163 721 76 l 583 0 l 658 238 l 297 238 b 224 0 275 163 247 76 l 110 0 l 185 238 l 44 238 l 44 351 l 221 351 l 319 657 l 89 657 l 89 771 l 356 771 l 433 999 l 546 999 l 467 771 l 829 771 l 907 999 l 1019 999 l 940 771 l 1074 771 m 694 351 l 793 657 l 432 657 l 335 351 "},"o":{"ha":961,"x_min":0,"x_max":0,"o":"m 722 806 b 892 638 817 806 892 731 l 892 168 b 722 0 892 75 817 0 l 239 0 b 71 168 146 0 71 75 l 71 638 b 239 806 71 731 146 806 m 239 692 b 185 638 210 692 185 667 l 185 168 b 239 114 185 139 210 114 l 722 114 b 776 168 753 114 776 139 l 776 638 b 722 692 776 667 753 692 "},"ó":{"ha":961,"x_min":0,"x_max":0,"o":"m 722 806 b 892 638 817 806 892 731 l 892 168 b 722 0 892 75 817 0 l 239 0 b 71 168 146 0 71 75 l 71 638 b 239 806 71 731 146 806 m 239 692 b 185 638 210 692 185 667 l 185 168 b 239 114 185 139 210 114 l 722 114 b 776 168 753 114 776 139 l 776 638 b 722 692 776 667 753 692 m 426 1254 l 536 1254 l 489 1061 l 378 1061 "},"ô":{"ha":961,"x_min":0,"x_max":0,"o":"m 722 806 b 892 638 817 806 892 731 l 892 168 b 722 0 892 75 817 0 l 239 0 b 71 168 146 0 71 75 l 71 638 b 239 806 71 731 146 806 m 239 692 b 185 638 210 692 185 667 l 185 168 b 239 114 185 139 210 114 l 722 114 b 776 168 753 114 776 139 l 776 638 b 722 692 776 667 753 692 m 311 1060 l 410 1222 l 492 1222 l 590 1060 l 532 1060 l 451 1178 l 368 1060 "},"ö":{"ha":961,"x_min":0,"x_max":0,"o":"m 722 806 b 892 638 817 806 892 731 l 892 168 b 722 0 892 75 817 0 l 239 0 b 71 168 146 0 71 75 l 71 638 b 239 806 71 731 146 806 m 239 692 b 185 638 210 692 185 667 l 185 168 b 239 114 185 139 210 114 l 722 114 b 776 168 753 114 776 139 l 776 638 b 722 692 776 667 753 692 m 651 1063 l 538 1063 l 538 1176 l 651 1176 m 403 1063 l 288 1063 l 288 1176 l 403 1176 "},"œ":{"ha":1635,"x_min":0,"x_max":0,"o":"m 892 346 l 892 168 b 946 114 892 139 917 114 l 1597 114 l 1597 0 l 240 0 b 72 168 146 0 72 75 l 72 638 b 240 806 72 731 146 806 l 1429 806 b 1597 638 1524 806 1597 731 l 1597 346 m 946 692 b 892 638 917 692 892 667 l 892 460 l 1483 460 l 1483 638 b 1429 692 1483 667 1458 692 l 946 692 m 724 114 b 778 168 753 114 778 139 l 778 638 b 724 692 778 667 753 692 l 240 692 b 186 638 211 692 186 667 l 186 168 b 240 114 186 139 211 114 l 724 114 "},"ò":{"ha":961,"x_min":0,"x_max":0,"o":"m 722 806 b 892 638 817 806 892 731 l 892 168 b 722 0 892 75 817 0 l 239 0 b 71 168 146 0 71 75 l 71 638 b 239 806 71 731 146 806 m 239 692 b 185 638 210 692 185 667 l 185 168 b 239 114 185 139 210 114 l 722 114 b 776 168 753 114 776 139 l 776 638 b 722 692 776 667 753 692 m 538 1061 l 426 1061 b 378 1254 408 1136 396 1183 l 490 1254 "},"õ":{"ha":961,"x_min":0,"x_max":0,"o":"m 722 806 b 892 638 817 806 892 731 l 892 168 b 722 0 892 75 817 0 l 239 0 b 71 168 146 0 71 75 l 71 638 b 239 806 71 731 146 806 m 239 692 b 185 638 210 692 185 667 l 185 168 b 239 114 185 139 210 114 l 722 114 b 776 168 753 114 776 139 l 776 638 b 722 692 776 667 753 692 m 615 1129 b 707 1153 647 1129 678 1139 l 707 1082 b 615 1063 681 1072 649 1063 b 322 1163 515 1063 436 1163 b 236 1151 300 1163 264 1161 l 236 1217 b 322 1229 261 1225 289 1229 b 613 1129 426 1229 507 1143 "},"p":{"ha":922,"x_min":0,"x_max":0,"o":"m 728 806 b 896 638 821 806 896 731 l 896 168 b 728 0 896 75 821 0 l 189 0 l 189 -319 l 75 -319 l 75 806 l 728 806 m 782 638 b 728 692 782 667 757 692 l 244 692 b 189 638 214 692 189 667 l 189 168 b 244 114 189 139 214 114 l 728 114 b 782 168 757 114 782 139 "},"¶":{"ha":1157,"x_min":0,"x_max":0,"o":"m 78 840 b 246 1010 78 933 151 1010 l 1088 1010 l 1088 0 l 974 0 l 974 376 l 782 376 l 782 0 l 668 0 l 668 376 l 246 376 b 78 544 151 376 78 453 l 78 840 m 782 490 l 974 490 l 974 894 l 782 894 m 192 544 b 246 490 192 515 217 490 l 668 490 l 668 894 l 246 894 b 192 840 217 894 192 869 "},"(":{"ha":385,"x_min":0,"x_max":0,"o":"m 281 114 l 281 0 l 240 0 b 72 168 147 0 72 75 l 72 831 b 240 1000 72 925 147 1000 l 281 1000 l 281 885 l 240 885 b 186 831 211 885 186 860 l 186 168 b 240 114 186 139 211 114 "},")":{"ha":386,"x_min":0,"x_max":0,"o":"m 78 114 l 117 114 b 171 168 147 114 171 139 l 171 831 b 117 885 171 860 147 885 l 78 885 l 78 1000 l 117 1000 b 286 831 210 1000 286 925 l 286 168 b 117 0 286 75 210 0 l 78 0 "},"%":{"ha":1342,"x_min":0,"x_max":0,"o":"m 190 150 l 1201 1001 l 1201 853 l 190 0 m 367 1000 b 536 831 461 1000 536 925 l 536 714 b 367 546 536 621 461 546 l 236 546 b 67 714 142 546 67 621 l 67 831 b 236 1000 67 925 142 1000 m 397 631 b 451 685 426 631 451 656 l 451 860 b 397 914 451 890 426 914 l 206 914 b 151 860 176 914 151 890 l 151 685 b 206 631 151 656 176 631 m 1126 453 b 1294 285 1219 453 1294 378 l 1294 167 b 1126 -1 1294 74 1219 -1 l 994 -1 b 826 167 900 -1 826 74 l 826 285 b 994 453 826 378 900 453 m 1156 83 b 1210 138 1185 83 1210 108 l 1210 314 b 1156 368 1210 343 1185 368 l 965 368 b 911 314 936 368 911 343 l 911 138 b 965 83 911 108 936 83 "},".":{"ha":297,"x_min":0,"x_max":0,"o":"m 189 0 l 75 0 l 75 114 l 189 114 "},"+":{"ha":601,"x_min":0,"x_max":0,"o":"m 349 681 l 349 468 l 565 468 l 565 354 l 349 354 l 349 139 l 235 139 l 235 354 l 24 354 l 24 468 l 235 468 l 235 681 "},"q":{"ha":922,"x_min":0,"x_max":0,"o":"m 28 638 b 197 806 28 731 103 806 l 849 806 l 849 -319 l 735 -319 l 735 0 l 197 0 b 28 168 103 0 28 75 l 28 638 m 143 168 b 197 114 143 139 167 114 l 681 114 b 735 168 710 114 735 139 l 735 638 b 681 692 735 667 710 692 l 197 692 b 143 638 167 692 143 667 "},"?":{"ha":942,"x_min":0,"x_max":0,"o":"m 761 999 b 929 829 854 999 929 924 l 929 560 b 761 392 929 467 854 392 l 381 392 b 326 338 351 392 326 367 l 326 279 l 213 279 l 213 338 b 381 506 213 432 288 506 l 761 506 b 815 560 790 506 815 531 l 815 829 b 761 883 815 858 790 883 l 43 883 b 43 1000 43 974 43 1000 m 213 0 l 213 114 l 326 114 l 326 0 "},"":{"ha":926,"x_min":0,"x_max":0,"o":"m 731 1000 b 899 831 824 1000 899 925 l 899 561 b 731 393 899 468 824 393 l 453 393 b 399 339 422 393 399 368 l 399 210 l 283 210 l 283 339 b 453 507 283 433 358 507 l 731 507 b 785 561 760 507 785 532 l 785 831 b 731 885 785 860 760 885 l 151 885 l 151 726 l 38 726 l 38 860 b 203 1000 57 932 125 1000 m 283 0 l 283 114 l 399 114 l 399 0 "},"¿":{"ha":938,"x_min":0,"x_max":0,"o":"m 194 0 b 26 168 100 0 26 75 l 26 438 b 194 607 26 532 100 607 l 574 607 b 628 661 603 607 628 632 l 628 728 l 742 728 l 742 661 b 574 492 742 567 668 492 l 194 492 b 140 438 165 492 140 467 l 140 168 b 194 114 140 139 165 114 l 900 114 b 911 -11 900 22 911 -11 m 742 896 l 628 896 l 628 1011 l 742 1011 "},"\"":{"ha":517,"x_min":0,"x_max":0,"o":"m 196 806 l 82 806 l 82 1000 l 196 1000 m 411 806 l 297 806 l 297 1000 l 411 1000 "},"“":{"ha":504,"x_min":0,"x_max":0,"o":"m 65 697 l 65 833 b 181 993 65 908 113 972 l 181 697 m 317 697 l 317 833 b 431 993 317 908 363 972 l 431 697 "},"”":{"ha":504,"x_min":0,"x_max":0,"o":"m 440 1001 l 440 865 b 326 706 440 790 393 726 l 326 1001 m 190 1001 l 190 865 b 75 706 190 790 143 726 l 75 1001 "},"‘":{"ha":233,"x_min":0,"x_max":0,"o":"m 46 699 l 46 835 b 161 994 46 910 93 974 l 161 699 "},"’":{"ha":231,"x_min":0,"x_max":0,"o":"m 189 1001 l 189 865 b 75 706 189 790 142 726 l 75 1001 "},"'":{"ha":311,"x_min":0,"x_max":0,"o":"m 196 806 l 82 806 l 82 1000 l 196 1000 "},"r":{"ha":711,"x_min":0,"x_max":0,"o":"m 693 806 l 693 692 l 240 692 b 186 638 211 692 186 667 l 186 0 l 72 0 l 72 638 b 240 806 72 731 147 806 "},"˚":{"ha":324,"x_min":0,"x_max":0,"o":"m 201 1372 b 276 1299 243 1372 276 1339 l 276 1224 b 201 1150 276 1183 243 1150 l 124 1150 b 49 1224 82 1150 49 1183 l 49 1299 b 124 1372 49 1339 82 1372 m 208 1206 b 221 1219 215 1206 221 1211 l 221 1303 b 208 1317 221 1311 215 1317 l 117 1317 b 104 1303 110 1317 104 1311 l 104 1219 b 117 1206 104 1211 110 1206 "},"s":{"ha":953,"x_min":0,"x_max":0,"o":"m 888 626 l 772 626 l 772 638 b 718 692 772 667 747 692 l 235 692 b 181 638 206 692 181 667 l 181 514 b 235 460 181 485 206 460 l 718 460 b 888 292 813 460 888 385 l 888 168 b 718 0 888 75 813 0 l 235 0 b 67 168 142 0 67 75 l 67 179 l 181 179 l 181 168 b 235 114 181 139 206 114 l 718 114 b 772 168 747 114 772 139 l 772 292 b 718 346 772 321 747 346 l 235 346 b 67 514 142 346 67 421 l 67 638 b 235 806 67 731 142 806 l 718 806 b 888 638 813 806 888 731 "},"š":{"ha":954,"x_min":0,"x_max":0,"o":"m 888 626 l 772 626 l 772 638 b 718 692 772 667 747 692 l 235 692 b 181 638 206 692 181 667 l 181 514 b 235 460 181 485 206 460 l 718 460 b 888 292 813 460 888 385 l 888 168 b 718 0 888 75 813 0 l 235 0 b 67 168 142 0 67 75 l 67 179 l 181 179 l 181 168 b 235 114 181 139 206 114 l 718 114 b 772 168 747 114 772 139 l 772 292 b 718 346 772 321 747 346 l 235 346 b 67 514 142 346 67 421 l 67 638 b 235 806 67 731 142 806 l 718 806 b 888 638 813 806 888 731 m 365 1222 l 449 1104 l 529 1222 l 586 1222 l 489 1060 l 407 1060 l 307 1222 "},";":{"ha":268,"x_min":0,"x_max":0,"o":"m 185 703 l 71 703 l 71 817 l 185 817 m 185 114 l 185 -22 b 71 -182 185 -97 138 -160 l 71 114 "},"":{"ha":1071,"x_min":0,"x_max":0,"o":"m 69 0 l 75 0 l 64 -15 m 1074 1001 l 225 0 l 75 0 l 829 886 l 69 886 l 69 1001 "},"/":{"ha":724,"x_min":0,"x_max":0,"o":"m 711 1000 l 711 856 l 8 0 l 8 147 "},"":{"ha":1075,"x_min":0,"x_max":0,"o":"m 231 1001 l 1081 0 l 931 0 l 693 281 l 190 281 l 190 0 l 75 0 l 75 1001 m 190 396 l 600 396 l 190 874 "},"£":{"ha":1019,"x_min":0,"x_max":0,"o":"m 844 810 l 844 831 b 790 885 844 860 821 885 l 369 885 b 315 831 340 885 315 860 l 315 563 l 804 563 l 804 449 l 315 449 l 315 114 l 960 114 l 960 0 l 54 0 l 54 114 l 200 114 l 200 449 l 54 449 l 54 563 l 200 563 l 200 831 b 369 1000 200 925 275 1000 l 790 1000 b 960 831 885 1000 960 925 l 960 810 "},"t":{"ha":569,"x_min":0,"x_max":0,"o":"m 188 692 l 188 168 b 242 114 188 139 213 114 l 536 114 l 536 0 l 242 0 b 74 168 147 0 74 75 l 74 1069 l 188 1069 l 188 806 l 536 806 l 536 692 "},"˜":{"ha":560,"x_min":0,"x_max":0,"o":"m 411 1283 b 503 1307 443 1283 474 1293 l 503 1236 b 411 1217 476 1226 444 1217 b 118 1317 311 1217 232 1317 b 32 1306 96 1317 60 1315 l 32 1371 b 118 1383 57 1379 85 1383 b 408 1283 222 1383 303 1297 "},"":{"ha":1132,"x_min":0,"x_max":0,"o":"m 929 601 l 183 222 l 183 114 l 1076 114 l 1076 0 l 235 0 b 69 132 156 0 88 60 b 68 293 69 186 68 239 l 963 747 l 963 886 l 238 886 b 183 832 208 886 183 861 l 183 774 l 68 774 l 68 832 b 238 1001 68 926 143 1001 l 911 1001 b 1076 860 988 1001 1056 932 l 1076 678 "},"u":{"ha":965,"x_min":0,"x_max":0,"o":"m 894 806 l 894 168 b 725 0 894 75 819 0 l 242 0 b 74 168 149 0 74 75 l 74 806 l 188 806 l 188 168 b 242 114 188 139 213 114 l 725 114 b 781 168 756 114 781 139 l 781 806 "},"ú":{"ha":965,"x_min":0,"x_max":0,"o":"m 894 806 l 894 168 b 725 0 894 75 819 0 l 242 0 b 74 168 149 0 74 75 l 74 806 l 188 806 l 188 168 b 242 114 188 139 213 114 l 725 114 b 781 168 756 114 781 139 l 781 806 m 428 1254 l 538 1254 l 490 1061 l 379 1061 "},"û":{"ha":965,"x_min":0,"x_max":0,"o":"m 894 806 l 894 168 b 725 0 894 75 819 0 l 242 0 b 74 168 149 0 74 75 l 74 806 l 188 806 l 188 168 b 242 114 188 139 213 114 l 725 114 b 781 168 756 114 781 139 l 781 806 m 313 1061 l 411 1224 l 493 1224 l 592 1061 l 533 1061 l 453 1179 l 369 1061 "},"ü":{"ha":965,"x_min":0,"x_max":0,"o":"m 894 806 l 894 168 b 725 0 894 75 819 0 l 242 0 b 74 168 149 0 74 75 l 74 806 l 188 806 l 188 168 b 242 114 188 139 213 114 l 725 114 b 781 168 756 114 781 139 l 781 806 m 653 1060 l 539 1060 l 539 1174 l 653 1174 m 404 1060 l 289 1060 l 289 1174 l 404 1174 "},"ù":{"ha":965,"x_min":0,"x_max":0,"o":"m 894 806 l 894 168 b 725 0 894 75 819 0 l 242 0 b 74 168 149 0 74 75 l 74 806 l 188 806 l 188 168 b 242 114 188 139 213 114 l 725 114 b 781 168 756 114 781 139 l 781 806 m 539 1061 l 428 1061 b 379 1254 410 1136 397 1183 l 492 1254 "},"_":{"ha":1150,"x_min":0,"x_max":0,"o":"m 1086 -114 l 75 -114 l 75 0 l 1086 0 "},"":{"ha":0,"x_min":0,"x_max":0,"o":""},"v":{"ha":1097,"x_min":0,"x_max":0,"o":"m 1051 806 l 606 0 l 474 0 b 29 806 326 271 176 536 l 163 806 l 540 111 l 918 806 "},"w":{"ha":1488,"x_min":0,"x_max":0,"o":"m 1453 806 l 1149 0 l 1050 0 l 750 665 l 465 0 l 365 0 b 49 806 257 274 156 533 l 171 806 l 415 206 l 675 806 l 825 806 l 1101 207 l 1329 806 "},"x":{"ha":961,"x_min":0,"x_max":0,"o":"m 886 806 l 550 410 l 888 0 l 738 0 l 475 322 b 214 0 394 224 296 100 l 64 0 l 400 410 l 64 806 l 214 806 l 475 500 b 738 806 553 592 657 713 "},"y":{"ha":951,"x_min":0,"x_max":0,"o":"m 878 -150 b 710 -319 878 -244 804 -319 l 207 -319 l 207 -204 l 710 -204 b 764 -150 739 -204 764 -179 l 764 0 l 226 0 b 58 168 133 0 58 75 l 58 803 l 172 803 l 172 168 b 226 114 172 139 197 114 l 710 114 b 764 168 739 114 764 139 l 764 803 l 878 803 l 878 -150 "},"ý":{"ha":956,"x_min":0,"x_max":0,"o":"m 878 -150 b 710 -319 878 -244 804 -319 l 207 -319 l 207 -204 l 710 -204 b 764 -150 739 -204 764 -179 l 764 0 l 226 0 b 58 168 133 0 58 75 l 58 803 l 172 803 l 172 168 b 226 114 172 139 197 114 l 710 114 b 764 168 739 114 764 139 l 764 803 l 878 803 l 878 -150 m 424 1254 l 533 1254 l 486 1061 l 375 1061 "},"ÿ":{"ha":956,"x_min":0,"x_max":0,"o":"m 878 -150 b 710 -319 878 -244 804 -319 l 207 -319 l 207 -204 l 710 -204 b 764 -150 739 -204 764 -179 l 764 0 l 226 0 b 58 168 133 0 58 75 l 58 803 l 172 803 l 172 168 b 226 114 172 139 197 114 l 710 114 b 764 168 739 114 764 139 l 764 803 l 878 803 l 878 -150 m 649 1063 l 535 1063 l 535 1176 l 649 1176 m 400 1063 l 285 1063 l 285 1176 l 400 1176 "},"z":{"ha":969,"x_min":0,"x_max":0,"o":"m 75 806 l 896 806 l 896 650 l 200 114 l 896 114 l 896 0 l 75 0 l 75 156 l 771 692 l 75 692 "},"ž":{"ha":969,"x_min":0,"x_max":0,"o":"m 75 806 l 896 806 l 896 650 l 200 114 l 896 114 l 896 0 l 75 0 l 75 156 l 771 692 l 75 692 m 374 1226 l 457 1108 l 538 1226 l 594 1226 l 497 1064 l 415 1064 l 315 1226 "},"A":{"ha":1161,"x_min":0,"x_max":0,"o":"m 914 1000 b 1081 833 1007 1000 1081 926 l 1081 0 l 968 0 l 968 365 l 193 365 l 193 0 l 81 0 l 81 833 b 247 1000 81 926 154 1000 m 968 478 l 968 833 b 914 888 968 863 943 888 l 247 888 b 193 833 218 888 193 863 l 193 478 "}}}
